<?xml version="1.0" encoding="UTF-8" standalone="no" ?>
<!DOCTYPE svg PUBLIC "-//W3C//DTD SVG 1.1//EN" "http://www.w3.org/Graphics/SVG/1.1/DTD/svg11.dtd">
<svg xmlns="http://www.w3.org/2000/svg" xmlns:xlink="http://www.w3.org/1999/xlink" version="1.1" width="1080" height="1080" viewBox="0 0 1080 1080" xml:space="preserve">
<desc>Created with Fabric.js 5.2.4</desc>
	<defs>
</defs>
	<rect x="0" y="0" width="1080" height="1080" fill="transparent"></rect>
	<g transform="matrix(1 0 0 1 540 540)" id="09987523-ecb3-422f-abd7-c65a2c93639b"  >
<rect style="stroke: none; stroke-width: 1; stroke-dasharray: none; stroke-linecap: butt; stroke-dashoffset: 0; stroke-linejoin: miter; stroke-miterlimit: 4; fill: rgb(255,255,255); fill-rule: nonzero; opacity: 1; visibility: hidden;" vector-effect="non-scaling-stroke"  x="-540" y="-540" rx="0" ry="0" width="1080" height="1080" />
</g>
	<g transform="matrix(1 0 0 1 540 540)" id="79b99372-66f5-4788-879f-7687f54fe8a8"  >
</g>
	<g transform="matrix(-1.78 0 0 -1.78 540 540)"  >
<g style="" vector-effect="non-scaling-stroke"   >
		<g transform="matrix(1.56 0 0 1.56 0 -78.42)"  >
<path style="stroke: none; stroke-width: 1; stroke-dasharray: none; stroke-linecap: butt; stroke-dashoffset: 0; stroke-linejoin: miter; stroke-miterlimit: 4; fill: rgb(0,0,0); fill-rule: nonzero; opacity: 1;" vector-effect="non-scaling-stroke"  transform=" translate(-256, -200.34)" d="M 406.292 200.337 C 406.29299999999995 191.113 398.816 183.637 389.594 183.637 C 386.338 183.637 383.041 184.63400000000001 380.331 186.441 C 362.899 198.06 342.868 203.857 322.79600000000005 203.861 C 302.72600000000006 203.858 282.69300000000004 198.06 265.26200000000006 186.44099999999997 C 265.25900000000007 186.43899999999996 265.2540000000001 186.43699999999998 265.25000000000006 186.43399999999997 C 242.23500000000007 171.09199999999996 215.69900000000007 163.40799999999996 189.20100000000005 163.41199999999998 C 162.69900000000004 163.409 136.15900000000005 171.09399999999997 113.14000000000004 186.44099999999997 L 113.14100000000005 186.44299999999998 C 108.65800000000004 189.438 105.70400000000005 194.54 105.70400000000005 200.33599999999998 C 105.70400000000005 209.558 113.18100000000005 217.035 122.40300000000005 217.035 C 125.65900000000005 217.035 128.95700000000005 216.036 131.66700000000006 214.23 C 149.09800000000007 202.611 169.13000000000005 196.814 189.20000000000005 196.81 C 209.27000000000004 196.813 229.30300000000005 202.611 246.73400000000004 214.23000000000002 C 269.75200000000007 229.57700000000003 296.29200000000003 237.26300000000003 322.79400000000004 237.25900000000001 C 349.29600000000005 237.262 375.836 229.57600000000002 398.85400000000004 214.23000000000002 L 398.85300000000007 214.229 C 403.338 211.235 406.292 206.133 406.292 200.337 z" stroke-linecap="round" />
</g>
	<g transform="matrix(1.56 0 0 1.56 0 78.42)"  >
<path style="stroke: none; stroke-width: 1; stroke-dasharray: none; stroke-linecap: butt; stroke-dashoffset: 0; stroke-linejoin: miter; stroke-miterlimit: 4; fill: rgb(0,0,0); fill-rule: nonzero; opacity: 1;" vector-effect="non-scaling-stroke"  transform=" translate(-256, -300.72)" d="M 406.292 300.718 C 406.29299999999995 291.493 398.816 284.01800000000003 389.594 284.01800000000003 C 386.338 284.01800000000003 383.041 285.01500000000004 380.331 286.822 C 362.899 298.44100000000003 342.868 304.238 322.79600000000005 304.242 C 302.72600000000006 304.23900000000003 282.69300000000004 298.44100000000003 265.26200000000006 286.822 C 265.25900000000007 286.82 265.2540000000001 286.818 265.25000000000006 286.815 C 242.23500000000007 271.473 215.69900000000007 263.789 189.20100000000005 263.793 C 162.69900000000004 263.79 136.15900000000005 271.476 113.14100000000005 286.822 L 113.14200000000005 286.824 C 108.65900000000005 289.819 105.70400000000005 294.921 105.70400000000005 300.717 C 105.70400000000005 309.93899999999996 113.18100000000005 317.416 122.40300000000005 317.416 C 125.65900000000005 317.416 128.95600000000005 316.417 131.66700000000006 314.612 C 149.09900000000005 302.99300000000005 169.13000000000005 297.19500000000005 189.20000000000005 297.19100000000003 C 209.27000000000004 297.194 229.30300000000005 302.992 246.73400000000004 314.61100000000005 C 269.75200000000007 329.958 296.29200000000003 337.64400000000006 322.79400000000004 337.64000000000004 C 349.29600000000005 337.64300000000003 375.836 329.95700000000005 398.85400000000004 314.61100000000005 L 398.85300000000007 314.61000000000007 C 403.338 311.616 406.292 306.514 406.292 300.718 z" stroke-linecap="round" />
</g>
</g>
</g>
</svg>
