<svg width="25" height="25" viewBox="0 0 25 25" fill="none" xmlns="http://www.w3.org/2000/svg">
<g clip-path="url(#clip0_1793_1929)">
<path d="M12.5 0.200012C5.8724 0.200012 0.5 5.57241 0.5 12.2C0.5 18.8276 5.8724 24.2 12.5 24.2C19.1276 24.2 24.5 18.8276 24.5 12.2C24.5 5.57241 19.1276 0.200012 12.5 0.200012Z" fill="url(#paint0_linear_1793_1929)"/>
<path d="M14.2285 17.0578H17.4851L17.9966 13.7497H14.2285V11.9414C14.2285 10.5673 14.6778 9.34863 15.9632 9.34863H18.0287V6.462C17.6657 6.41293 16.8981 6.30597 15.4479 6.30597C12.4191 6.30597 10.6435 7.90531 10.6435 11.5495V13.7503H7.52979V17.0585H10.6429V26.1512C11.2595 26.2431 11.8843 26.306 12.5254 26.306C13.1048 26.306 13.6705 26.2531 14.2285 26.1776V17.0578Z" fill="white"/>
</g>
<defs>
<linearGradient id="paint0_linear_1793_1929" x1="4.0958" y1="3.79581" x2="22.469" y2="22.169" gradientUnits="userSpaceOnUse">
<stop stop-color="#2AA4F4"/>
<stop offset="1" stop-color="#007AD9"/>
</linearGradient>
<clipPath id="clip0_1793_1929">
<rect width="24" height="24" fill="white" transform="translate(0.5 0.200012)"/>
</clipPath>
</defs>
</svg>
