<svg width="24" height="25" viewBox="0 0 24 25" fill="none" xmlns="http://www.w3.org/2000/svg">
<g clip-path="url(#clip0_1845_823)">
<path d="M23.5078 12.4245C23.5078 11.4412 23.4295 10.7237 23.2598 9.97961H12.2295V14.4176H18.7041C18.5736 15.5205 17.8687 17.1814 16.3022 18.2975L16.2802 18.4461L19.7678 21.1963L20.0095 21.2209C22.2285 19.1347 23.5078 16.0653 23.5078 12.4245Z" fill="#4285F4"/>
<path d="M12.2296 24.1176C15.4016 24.1176 18.0645 23.0545 20.0095 21.2209L16.3023 18.2976C15.3102 19.0018 13.9787 19.4935 12.2296 19.4935C9.1228 19.4935 6.48598 17.4074 5.54603 14.524L5.40825 14.5359L1.7818 17.3927L1.73438 17.5269C3.6663 21.4334 7.63462 24.1176 12.2296 24.1176Z" fill="#34A853"/>
<path d="M5.54597 14.524C5.29795 13.7799 5.15442 12.9826 5.15442 12.1588C5.15442 11.3349 5.29795 10.5377 5.53292 9.79361L5.52635 9.63514L1.85446 6.73242L1.73432 6.79059C0.938084 8.41169 0.481201 10.2321 0.481201 12.1588C0.481201 14.0855 0.938084 15.9058 1.73432 17.5269L5.54597 14.524Z" fill="#FBBC05"/>
<path d="M12.2295 4.82404C14.4356 4.82404 15.9237 5.79403 16.7722 6.60462L20.0878 3.30929C18.0515 1.38261 15.4015 0.200012 12.2295 0.200012C7.63462 0.200012 3.6663 2.88407 1.73438 6.79058L5.53297 9.7936C6.48597 6.91021 9.12279 4.82404 12.2295 4.82404Z" fill="#EB4335"/>
</g>
<defs>
<clipPath id="clip0_1845_823">
<rect width="23.04" height="24" fill="white" transform="translate(0.47998 0.200012)"/>
</clipPath>
</defs>
</svg>
