<svg viewBox="0 0 16 16" fill="none" xmlns="http://www.w3.org/2000/svg" id="Trash-Bin-Trash--Streamline-Solar" height="16" width="16"><desc>Trash Bin Trash Streamline Icon: https://streamlinehq.com</desc><path d="M2 4.257313333333333c0 -0.3229666666666666 0.23025333333333334 -0.5847866666666666 0.5142866666666666 -0.5847866666666666l1.77616 -0.0003133333333333333c0.3529 -0.010173333333333333 0.6642333333333332 -0.26532666666666666 0.7843133333333332 -0.6427999999999999 0.00316 -0.009926666666666667 0.0067866666666666665 -0.022166666666666668 0.019806666666666667 -0.06658666666666666l0.07653333333333333 -0.26111999999999996c0.04683333333333334 -0.1601 0.08763333333333334 -0.29958666666666667 0.14473333333333332 -0.42425999999999997 0.22555999999999998 -0.49254 0.6428866666666666 -0.8345666666666666 1.1251466666666667 -0.9221333333333332 0.12206666666666667 -0.022166666666666668 0.2513533333333333 -0.022073333333333334 0.3997533333333333 -0.021966666666666666h2.3186666666666667c0.14839999999999998 -0.00010666666666666667 0.2776666666666666 -0.00019999999999999998 0.39973333333333333 0.021966666666666666 0.4822666666666667 0.08756666666666665 0.8996 0.4295933333333333 1.1251333333333333 0.9221333333333332 0.05713333333333333 0.12467333333333333 0.09793333333333333 0.26415999999999995 0.14473333333333332 0.42425999999999997l0.07653333333333333 0.26111999999999996c0.013 0.044419999999999994 0.016666666666666666 0.056659999999999995 0.019799999999999998 0.06658666666666666 0.12013333333333333 0.3774733333333333 0.49319999999999997 0.63294 0.8460666666666665 0.6431133333333333h1.7143333333333333c0.284 0 0.5142666666666666 0.26182 0.5142666666666666 0.5847866666666666 0 0.32297333333333333 -0.23026666666666665 0.5847933333333333 -0.5142666666666666 0.5847933333333333H2.5142866666666666C2.230253333333333 4.842106666666666 2 4.580286666666666 2 4.257313333333333Z" fill="#000000" stroke-width="0.6667"></path><path fill-rule="evenodd" clip-rule="evenodd" d="M7.7303999999999995 14.666733333333333h0.5391999999999999c1.8551333333333333 0 2.7827333333333333 0 3.3858 -0.5906 0.6031333333333333 -0.5906 0.6648 -1.5594000000000001 0.7881999999999999 -3.497066666666666l0.17779999999999999 -2.791933333333333c0.067 -1.0513333333333332 0.10046666666666666 -1.5769733333333333 -0.20213333333333333 -1.91008 -0.3025333333333333 -0.33310666666666666 -0.8134666666666666 -0.33310666666666666 -1.8352666666666666 -0.33310666666666666H5.416026666666667c-1.0218466666666666 0 -1.5327733333333333 0 -1.8353266666666666 0.33310666666666666 -0.30255333333333334 0.33310666666666666 -0.26907333333333333 0.8587466666666665 -0.2021133333333333 1.91008l0.17780666666666667 2.791933333333333c0.12340666666666666 1.9376666666666664 0.18510666666666667 2.9064666666666668 0.7881999999999999 3.497066666666666 0.6030933333333333 0.5906 1.5306666666666664 0.5906 3.3858066666666664 0.5906Zm-0.8995333333333333 -6.541c-0.027466666666666667 -0.2892 -0.27251333333333333 -0.5002666666666666 -0.5472866666666667 -0.47133333333333327 -0.2747733333333333 0.028933333333333332 -0.47524 0.28686666666666666 -0.44776666666666665 0.5760666666666666l0.3333333333333333 3.5088c0.027479999999999997 0.2892 0.27249999999999996 0.5002666666666666 0.5472533333333334 0.47133333333333327 0.2748 -0.028933333333333332 0.4752666666666666 -0.28686666666666666 0.4478 -0.5760666666666666l-0.3333333333333333 -3.5088Zm2.885533333333333 -0.47133333333333327c0.2748 0.028933333333333332 0.4752666666666666 0.28686666666666666 0.4478 0.5760666666666666l-0.3333333333333333 3.5088c-0.027466666666666667 0.2892 -0.2725333333333333 0.5002666666666666 -0.5472666666666666 0.47133333333333327 -0.2748 -0.028933333333333332 -0.4752666666666666 -0.28686666666666666 -0.4478 -0.5760666666666666l0.3333333333333333 -3.5088c0.027466666666666667 -0.2892 0.2725333333333333 -0.5002666666666666 0.5472666666666666 -0.47133333333333327Z" fill="#000000" stroke-width="0.6667"></path></svg>