<?xml version="1.0" encoding="UTF-8" standalone="no" ?>
<svg xmlns="http://www.w3.org/2000/svg" xmlns:xlink="http://www.w3.org/1999/xlink" version="1.1" width="1080" height="1080" viewBox="0 0 1080 1080" xml:space="preserve">
<defs>
</defs>
<rect x="0" y="0" width="100%" height="100%" fill="transparent"></rect>
<g transform="matrix(1 0 0 1 540 540)" id="07db9f77-78ab-4200-9d18-ce86901bcc52"  >
</g>
<g transform="matrix(1 0 0 1 540 540)" id="d4de684d-342a-48bc-a95c-36f86e5d971b"  >
<rect style="stroke: none; stroke-width: 1; stroke-dasharray: none; stroke-linecap: butt; stroke-dashoffset: 0; stroke-linejoin: miter; stroke-miterlimit: 4; fill: rgb(255,255,255); fill-rule: nonzero; opacity: 1; visibility: hidden;" vector-effect="non-scaling-stroke"  x="-540" y="-540" rx="0" ry="0" width="1080" height="1080" />
</g>
<g transform="matrix(1.72 0 0 1.72 540 504.43)"  >
<g style="" vector-effect="non-scaling-stroke"   >
		<g transform="matrix(3.2 0 0 3.2 4.42 154.1)"  >
<path style="stroke: none; stroke-width: 1; stroke-dasharray: none; stroke-linecap: butt; stroke-dashoffset: 0; stroke-linejoin: miter; stroke-miterlimit: 4; fill: rgb(12,48,65); fill-rule: nonzero; opacity: 1;" vector-effect="non-scaling-stroke"  transform=" translate(-255.46, -253.84)" d="M 258.24 246.895 L 258.746 247.004 C 260.648 248.928 262.19 251.73 262.851 254.346 C 262.347 256.094 261.515 258.317 260.126 259.524 C 258.206 261.194 255.528 260.779 253.187 260.659 C 251.751 260.533 249.963 260.396 248.822 259.419 C 248.346 259.012 248.033 258.46 248.073 257.815 C 248.121 257.058 248.596 256.335 249.069 255.771 C 250.244 254.367 251.868 253.222 253.229 251.982 C 254.999 250.371 256.621 248.655 258.24 246.895 Z" stroke-linecap="round" />
</g>
		<g transform="matrix(3.2 0 0 3.2 -99.09 76.82)"  >
<path style="stroke: none; stroke-width: 1; stroke-dasharray: none; stroke-linecap: butt; stroke-dashoffset: 0; stroke-linejoin: miter; stroke-miterlimit: 4; fill: rgb(12,48,65); fill-rule: nonzero; opacity: 1;" vector-effect="non-scaling-stroke"  transform=" translate(-223.11, -229.7)" d="M 226.627 220.529 C 226.838 220.516 227.049 220.512 227.261 220.515 C 228.783 220.536 230.052 221.183 231.085 222.314 C 231.622 222.902 231.899 223.596 231.84 224.402 C 231.693 226.432 221.452 237.22 219.381 238.793 C 218.547 238.972 217.966 238.878 217.226 238.454 C 215.982 237.742 214.862 236.016 214.499 234.657 C 214.175 233.443 214.518 232.408 215.118 231.345 C 217.304 227.474 222.196 221.791 226.627 220.529 Z" stroke-linecap="round" />
</g>
		<g transform="matrix(3.2 0 0 3.2 -31.57 133.57)"  >
<path style="stroke: none; stroke-width: 1; stroke-dasharray: none; stroke-linecap: butt; stroke-dashoffset: 0; stroke-linejoin: miter; stroke-miterlimit: 4; fill: rgb(12,48,65); fill-rule: nonzero; opacity: 1;" vector-effect="non-scaling-stroke"  transform=" translate(-244.21, -247.43)" d="M 248.572 238.015 C 249.425 237.98 250.099 238.117 250.91 238.353 C 251.869 238.63 253.009 238.929 253.436 239.951 C 253.769 240.746 253.577 241.685 253.275 242.458 C 252.95 243.287 252.452 244.046 251.881 244.727 C 250.356 246.545 248.492 248.051 246.889 249.797 C 245.226 251.609 243.83 253.717 241.987 255.356 C 241.269 255.994 240.564 256.447 239.693 256.848 Q 239.525 256.818 239.357 256.783 C 237.952 256.481 236.004 255.587 235.246 254.313 C 234.752 253.482 234.704 252.449 234.984 251.54 C 236.12 247.862 245.045 239.842 248.572 238.015 Z" stroke-linecap="round" />
</g>
		<g transform="matrix(3.2 0 0 3.2 -65.63 103.58)"  >
<path style="stroke: none; stroke-width: 1; stroke-dasharray: none; stroke-linecap: butt; stroke-dashoffset: 0; stroke-linejoin: miter; stroke-miterlimit: 4; fill: rgb(12,48,65); fill-rule: nonzero; opacity: 1;" vector-effect="non-scaling-stroke"  transform=" translate(-233.57, -238.06)" d="M 237.986 227.993 C 239.778 227.981 240.831 228.433 242.344 229.336 C 242.61 229.776 242.878 230.218 243.108 230.677 C 243.543 231.548 243.655 232.369 243.294 233.29 C 242.638 234.965 232.561 245.688 230.943 247.069 C 230.375 247.555 229.738 247.834 229.046 248.096 C 228.694 248.112 228.348 248.13 227.996 248.115 C 226.682 248.06 225.509 247.332 224.651 246.359 C 223.899 245.507 223.518 244.391 223.659 243.258 C 223.745 242.573 223.93 241.948 224.366 241.399 C 225.984 239.363 228.456 237.722 230.33 235.89 C 232.897 233.38 235.1 230.094 237.986 227.993 Z" stroke-linecap="round" />
</g>
		<g transform="matrix(3.2 0 0 3.2 -1.14 -210.62)"  >
<path style="stroke: none; stroke-width: 1; stroke-dasharray: none; stroke-linecap: butt; stroke-dashoffset: 0; stroke-linejoin: miter; stroke-miterlimit: 4; fill: rgb(22,100,105); fill-rule: nonzero; opacity: 1;" vector-effect="non-scaling-stroke"  transform=" translate(-253.72, -139.87)" d="M 247.526 119.723 C 248.093 119.678 248.613 119.634 249.167 119.798 C 250.328 120.143 251.374 121.033 252.289 121.805 C 254.843 123.961 269.09 137.873 270.462 140.353 C 268.515 142.65 265.923 144.559 263.711 146.618 C 260.575 149.538 257.566 152.615 254.526 155.636 C 253.536 156.576 252.544 157.542 251.486 158.405 C 250.473 159.231 248.746 160.291 247.357 160.013 C 246.65 159.872 246.126 159.543 245.717 158.952 C 243.959 156.413 244.916 150.921 245.334 148.026 Q 241.939 148.049 238.546 147.909 Q 238.404 147.552 238.278 147.189 C 237.417 144.68 236.32 136.352 237.497 133.981 C 239.544 132.797 243.625 133.309 245.964 133.386 C 245.368 130.121 244.492 125.902 245.26 122.613 C 245.601 121.154 246.268 120.479 247.526 119.723 Z" stroke-linecap="round" />
</g>
		<g transform="matrix(3.2 0 0 3.2 165.08 -120.16)"  >
<path style="stroke: none; stroke-width: 1; stroke-dasharray: none; stroke-linecap: butt; stroke-dashoffset: 0; stroke-linejoin: miter; stroke-miterlimit: 4; fill: rgb(22,100,105); fill-rule: nonzero; opacity: 1;" vector-effect="non-scaling-stroke"  transform=" translate(-305.67, -168.14)" d="M 278.111 134.028 C 285.626 136.254 293.423 139.943 299.751 144.625 C 302.585 146.721 305.229 149.242 307.91 151.542 C 310.883 154.092 313.936 156.569 316.563 159.485 C 321.668 165.154 327.707 175.348 330.485 182.491 C 331.94 186.232 332.936 190.164 333.914 194.052 C 334.478 196.297 335.444 199.037 335.329 201.359 L 334.986 201.661 L 333.563 201.549 C 329.252 201.488 324.292 201.219 320.097 202.245 C 318.973 195.56 317.057 189.323 313.748 183.376 C 311.655 179.613 309.105 176.384 306.426 173.034 C 299.704 164.627 294.939 159.794 285.273 154.747 C 282.271 153.179 279.267 151.711 275.995 150.79 C 278.765 145.197 278.478 140.073 278.111 134.028 Z" stroke-linecap="round" />
</g>
		<g transform="matrix(3.2 0 0 3.2 -167.58 -118.29)"  >
<path style="stroke: none; stroke-width: 1; stroke-dasharray: none; stroke-linecap: butt; stroke-dashoffset: 0; stroke-linejoin: miter; stroke-miterlimit: 4; fill: rgb(22,100,105); fill-rule: nonzero; opacity: 1;" vector-effect="non-scaling-stroke"  transform=" translate(-201.71, -168.72)" d="M 229.165 135.073 L 229.877 135.012 C 230.413 135.497 230.103 137.675 230.094 138.503 C 230.042 143.052 230.556 147.327 231.181 151.819 C 224.244 152.666 217.284 157.258 211.936 161.51 C 199.666 171.265 189.773 186.471 187.967 202.273 C 187.36 202.66 185.318 202.206 184.498 202.164 C 181.472 202.01 178.412 202.045 175.381 202.005 Q 173.891 201.932 172.4 201.875 C 172.361 201.736 172.308 201.6 172.283 201.457 C 171.992 199.81 173.144 196.591 173.581 194.917 C 176.295 184.517 179.253 175.315 185.587 166.485 C 193.278 155.763 203.524 147.402 214.903 140.887 C 219.698 138.143 223.64 135.985 229.165 135.073 Z" stroke-linecap="round" />
</g>
		<g transform="matrix(3.2 0 0 3.2 57.12 1.35)"  >
<path style="stroke: none; stroke-width: 1; stroke-dasharray: none; stroke-linecap: butt; stroke-dashoffset: 0; stroke-linejoin: miter; stroke-miterlimit: 4; fill: rgb(12,48,65); fill-rule: nonzero; opacity: 1;" vector-effect="non-scaling-stroke"  transform=" translate(-271.93, -206.11)" d="M 257.447 180.075 C 265.99 179.034 271.784 180.868 278.223 186.331 C 279.977 187.819 281.65 189.433 283.922 190.087 C 287.201 191.031 291.301 190.542 294.702 190.596 L 308.756 190.879 Q 309.517 211.542 308.372 232.188 C 303.635 231.698 298.349 231.961 293.614 232.424 C 293.02 227.229 290.85 224.897 287.162 221.497 C 282.145 217.304 277.628 212.357 273.078 207.658 C 269.214 203.668 264.827 198.162 259.74 195.771 C 252.832 192.524 247.83 203.307 242.133 205.102 C 240.613 205.58 239.09 205.4 237.717 204.594 C 236.287 203.756 235.017 202.443 234.655 200.779 C 234.492 200.03 234.538 199.439 234.985 198.8 C 235.938 197.436 237.436 196.256 238.582 195.025 C 242.648 190.662 246.841 185.454 251.845 182.141 C 253.576 180.995 255.422 180.416 257.447 180.075 Z" stroke-linecap="round" />
</g>
		<g transform="matrix(3.2 0 0 3.2 -36.63 25.4)"  >
<path style="stroke: none; stroke-width: 1; stroke-dasharray: none; stroke-linecap: butt; stroke-dashoffset: 0; stroke-linejoin: miter; stroke-miterlimit: 4; fill: rgb(12,48,65); fill-rule: nonzero; opacity: 1;" vector-effect="non-scaling-stroke"  transform=" translate(-242.63, -213.62)" d="M 247.007 177.077 L 247.167 177.182 C 247.233 177.682 247.309 177.474 246.94 177.819 C 245.4 179.257 243.592 180.425 242.024 181.847 C 239.155 184.449 230.609 193.289 229.227 196.415 C 228.144 198.866 228.339 201.647 229.331 204.093 C 230.543 207.08 232.908 209.645 235.917 210.86 C 243.05 213.741 248.862 209.093 253.798 204.459 C 254.705 203.607 255.91 202.122 257.089 201.698 C 257.675 201.488 257.879 201.556 258.414 201.878 C 260.556 203.166 269.912 213.478 272.562 216.101 C 276.622 220.118 281.047 223.691 284.835 228.006 C 285.829 229.138 286.815 230.427 287.161 231.92 C 287.499 233.378 287.151 234.799 286.32 236.027 C 285.507 237.227 284.135 238.504 282.655 238.75 C 281.477 238.946 280.419 238.452 279.508 237.745 C 277.159 235.923 275.451 233.12 273.385 230.973 C 268.471 225.866 262.488 220.21 256.883 215.894 C 255.959 217.106 254.912 218.474 254.538 219.97 C 254.58 220.596 254.868 220.923 255.257 221.386 C 256.93 223.381 259.013 225.187 260.857 227.034 L 271.577 237.901 C 273.072 239.356 275.036 240.982 275.835 242.949 C 276.264 244.003 276.045 245.085 275.578 246.088 C 274.795 247.77 273.14 249.388 271.358 249.97 C 270.594 250.219 269.702 250.285 268.97 249.898 C 267.564 249.155 261.587 242.784 260.405 241.232 C 258.014 238.092 256.792 234.622 253.036 232.758 C 252.941 232.71 252.845 232.665 252.749 232.619 C 251.67 232.58 250.573 232.739 249.499 232.842 C 249.378 231.625 249.256 230.386 249.041 229.182 C 248.65 226.993 247.613 224.829 245.695 223.597 C 243.227 222.013 240.115 222.18 237.38 222.813 C 237.1 221.693 236.739 220.531 236.248 219.482 C 235.293 217.441 233.787 216.026 231.641 215.298 Q 231.026 215.095 230.393 214.954 Q 229.761 214.813 229.118 214.735 Q 228.474 214.656 227.827 214.642 Q 227.179 214.628 226.533 214.678 Q 225.887 214.728 225.249 214.841 Q 224.611 214.954 223.987 215.13 Q 223.363 215.306 222.76 215.543 Q 222.157 215.779 221.58 216.074 C 215.235 219.259 211.018 226.078 208.978 232.619 C 205.769 231.933 202.609 232.107 199.39 232.629 C 198.874 225.553 198.127 218.554 198.045 211.445 C 197.963 204.356 198.536 197.247 197.973 190.169 C 204.245 189.987 213.972 191.029 219.635 189.803 C 226.874 188.236 233.983 181.062 241.262 178.341 C 243.08 177.661 245.098 177.405 247.007 177.077 Z" stroke-linecap="round" />
</g>
		<g transform="matrix(3.2 0 0 3.2 0 158.47)"  >
<path style="stroke: none; stroke-width: 1; stroke-dasharray: none; stroke-linecap: butt; stroke-dashoffset: 0; stroke-linejoin: miter; stroke-miterlimit: 4; fill: rgb(12,48,65); fill-rule: nonzero; opacity: 1;" vector-effect="non-scaling-stroke"  transform=" translate(-254.08, -255.21)" d="M 325.023 218.854 C 328.663 218.642 332.376 218.763 336.025 218.741 C 334.867 225.569 333.481 232.773 330.652 239.127 C 324.34 253.301 316.764 264.094 304.671 273.875 C 301.99 276.043 299.337 278.212 296.374 279.99 C 292.2 282.495 287.113 284.703 282.568 286.454 C 263.19 293.919 240.455 293.432 221.505 284.833 Q 216.003 282.368 210.876 279.196 Q 205.749 276.024 201.088 272.201 C 192.368 264.926 181.613 251.31 177.573 240.565 C 175.108 234.086 172.714 226.983 172.132 220.05 C 175.576 219.484 184.624 218.897 187.758 219.748 C 188.224 220.16 188.385 220.658 188.591 221.23 C 189.171 222.848 189.466 224.652 189.889 226.321 C 190.712 229.567 191.775 232.904 193.218 235.921 C 198.741 247.471 205.568 255.931 215.981 263.412 C 221.125 267.107 226.246 270.019 232.254 272.129 C 245.366 276.732 258.151 277.489 271.551 273.579 C 274.901 272.602 278.206 271.521 281.35 269.992 C 287.481 267.011 294.14 262.932 299.147 258.269 C 301.119 256.433 302.716 254.259 304.368 252.141 C 309.411 245.675 314.093 239.047 316.952 231.29 C 317.554 229.657 318.282 227.881 318.612 226.181 C 319.019 224.082 319.028 221.831 319.725 219.807 C 320.837 218.638 323.518 218.912 325.023 218.854 Z" stroke-linecap="round" />
</g>
</g>
</g>
</svg>